<svg width="163" height="54" viewBox="0 0 163 54" fill="none" xmlns="http://www.w3.org/2000/svg">
<path d="M138.376 4.35881V34.519H132.958V4.35881H127.553V0.0556641H143.778V4.35881H138.376Z" fill="#F0871B"/>
<path d="M108.851 34.5148V0.0556641H125.076V4.35881H114.253V14.4136H121.017V18.7295H114.261L114.253 30.2329L125.076 30.2286V34.5148H108.851Z" fill="#F0871B"/>
<path d="M89.9553 34.5148V0.0556641H106.18V4.35881H95.3566V14.4136H102.121V18.7295H95.3608L95.3566 30.2329L106.18 30.2286V34.5148H89.9553Z" fill="#F0871B"/>
<path d="M63.1433 4.35456V34.5148H57.7251V4.35456H52.3196V0.0556641H68.5446V4.35456H63.1433Z" fill="#F0871B"/>
<path d="M32.5645 34.2132H27.6796L24.8435 21.2061H24.7377L21.3259 34.2132H16.6527L21.4317 16.9157L16.6484 0.000488281H21.5799L24.7377 12.6253H24.8435L27.9928 0.000488281H32.6661L28.1537 16.9157L32.5645 34.2132Z" fill="white"/>
<path d="M11.9963 14.2568L11.992 18.6109H5.3251V34.2135H0V0.000732422H13.8884L15.0652 4.26989H5.3251V14.2568H11.9963Z" fill="white"/>
<path d="M39.9465 32.4504H41.2164H49.3226C49.3818 32.4504 49.4411 32.4589 49.5046 32.4589C50.1903 31.5371 50.5417 30.3137 50.5544 28.7717L50.6136 21.4228C50.6221 20.2037 50.4994 19.3796 50.2454 18.942C49.9872 18.5045 49.6316 18.1349 49.1702 17.8291C48.7088 17.519 47.9257 17.0899 46.8209 16.5334L41.7879 14.1334C41.1233 13.7766 40.645 13.4834 40.3529 13.2541C40.0566 13.0289 39.955 12.4809 39.9634 11.8395L40.0058 6.35119C40.0185 4.97486 40.7465 4.30369 42.262 4.31644L43.0959 4.32493C44.6494 4.33768 45.369 4.91539 45.3563 6.29172L45.3393 8.66206L50.7195 8.71303L50.7406 5.99861C50.7745 2.06079 48.658 0.0685181 44.3996 0.0302868L41.0598 0.000551409C36.8014 -0.0376799 34.6595 1.91211 34.6257 5.85418L34.5706 12.9142C34.5622 13.8105 34.668 14.5412 34.8881 15.1019C35.104 15.6669 35.4638 16.1256 35.959 16.4825C36.4543 16.8393 37.2586 17.2768 38.3634 17.8036L43.3964 20.2971C44.061 20.6582 44.5393 20.9513 44.8356 21.1764C45.1319 21.4016 45.2251 21.8179 45.2208 22.4593L45.1743 28.3342C45.1616 29.6808 44.5012 30.2245 43.0916 30.2117L42.1646 30.2033C40.573 30.1905 39.8111 29.5703 39.8238 28.2237L39.8111 25.8619L34.4563 25.8152L34.4479 28.1005C34.4182 32.0384 36.2511 34.1581 39.9423 34.4597V33.7248V32.4504H39.9465Z" fill="#F0871B"/>
<path d="M70.2339 43.0956C70.6021 40.8994 71.9863 38.6692 74.9621 36.7492L76.7061 39.1195L78.2173 30.1606C70.763 31.9193 67.7999 36.1545 67.4316 40.5043C66.9321 46.5321 68.837 50.0961 71.6604 51.9185C71.8763 52.0587 72.1218 51.7826 71.9567 51.5829C70.4159 49.6841 69.6243 46.6766 70.2339 43.0956Z" fill="#99B2D3"/>
<path d="M79.2118 20.5986L82.6363 34.519H87.5889L83.9443 20.1653C86.01 19.3667 87.0471 17.4636 87.0471 14.4561V5.96027C87.0471 2.02245 85.0491 0.0556641 81.0616 0.0556641H70.8347V32.0467C72.2104 31.006 73.9756 30.08 76.2487 29.3748V20.5986H79.2118ZM76.2487 4.35456H79.5081C81.0658 4.35456 81.6712 5.00024 81.6712 6.66118L81.6754 14.197C81.6754 15.8579 81.0489 16.6565 79.4869 16.6565H76.2487V4.35456Z" fill="#F0871B"/>
<path fill-rule="evenodd" clip-rule="evenodd" d="M56.3711 40.6233C56.3711 44.6291 53.3657 47.5474 49.319 47.5474H46.4702V52.8233H41.217V33.7205H49.3232C53.3657 33.7205 56.3711 36.6175 56.3711 40.6233ZM50.9825 40.6361C50.9825 39.2767 50.0725 38.3167 48.6925 38.3167H46.4744V42.9512H48.6925C50.0725 42.9554 50.9825 41.9954 50.9825 40.6361Z" fill="#E0E8F2"/>
<path d="M111.959 43.5841V52.8276H106.9V44.2128C106.9 42.6751 106.337 41.9317 105.262 41.9317C103.874 41.9317 103.158 42.8917 103.158 44.7481V52.8276H98.231V44.2128C98.231 42.7218 97.6722 41.9317 96.6098 41.9317C95.2383 41.9317 94.489 42.9172 94.489 44.7481V52.8276H89.4306V38.0873H92.9863L93.7059 39.6718C94.7684 38.4314 96.305 37.654 97.9982 37.654C99.7887 37.654 101.296 38.4611 102.21 39.8247C103.264 38.4909 104.889 37.654 106.718 37.654C109.867 37.654 111.959 40.1136 111.959 43.5841Z" fill="#E0E8F2"/>
<path d="M120.027 38.0873H114.968V52.8234H120.027V38.0873Z" fill="#E0E8F2"/>
<path d="M123.015 46.4982V38.0873H128.074V46.2773C128.074 47.8321 128.908 48.7496 130.258 48.7496C131.608 48.7496 132.425 47.8193 132.425 46.2773V38.0873H137.484V46.4982C137.484 50.6229 134.597 53.3076 130.258 53.3076C125.919 53.3076 123.015 50.6229 123.015 46.4982Z" fill="#E0E8F2"/>
<path d="M163 52.8276V43.5841C163 40.1136 160.909 37.654 157.76 37.654C155.931 37.654 154.305 38.4909 153.251 39.8247C152.337 38.4611 150.83 37.654 149.04 37.654C147.346 37.654 145.81 38.4314 144.747 39.6718L144.028 38.0873H140.472V52.8276H145.53V44.7481C145.53 42.9172 146.28 41.9317 147.651 41.9317C148.714 41.9317 149.272 42.7218 149.272 44.2128V52.8276H154.2V44.7481C154.2 42.8917 154.915 41.9317 156.303 41.9317C157.379 41.9317 157.942 42.6751 157.942 44.2128V52.8276H163Z" fill="#E0E8F2"/>
<path d="M66.1364 40.3982C66.1956 39.7015 66.3268 38.8902 66.5808 38.0279C64.913 38.0576 63.6897 38.5588 62.6822 39.727L61.8949 38.0916H58.5043V52.8276H63.5627V45.3343C63.5627 43.4694 64.2992 42.6793 66.0602 42.6666C66.0517 41.9487 66.0686 41.201 66.1364 40.3982Z" fill="#E0E8F2"/>
<path fill-rule="evenodd" clip-rule="evenodd" d="M83.5679 47.7174L83.8219 47.4115L87.7798 48.8346L87.3353 49.4463C86.6072 50.453 86.0866 51.1114 85.7479 51.4513C84.1013 53.1037 82.0822 53.9448 79.7498 53.9448C77.4259 53.9448 75.4152 53.108 73.7643 51.4513C72.596 50.2788 71.8426 48.9153 71.4997 47.3903C71.2796 46.2093 71.2754 44.9052 71.4828 43.5374C71.8214 41.9827 72.5791 40.5978 73.7643 39.4084C74.0649 39.1111 74.3781 38.8392 74.6998 38.5928L75.6565 39.8927C75.902 40.2325 76.2957 40.4237 76.702 40.4237C76.7994 40.4237 76.901 40.4152 77.0026 40.3897C77.5105 40.2665 77.8957 39.8545 77.9846 39.3362L78.3741 37.0253C78.8228 36.9574 79.2757 36.9149 79.7498 36.9149C81.7435 36.9149 83.5214 37.5308 85.0241 38.7415C85.2781 38.9539 85.5194 39.1748 85.7522 39.4084C85.8199 39.4764 85.9765 39.6421 86.5691 40.3132L86.9205 40.7125L85.1003 42.5561L78.0608 49.6247C78.4249 49.7394 78.9582 49.8286 79.754 49.8286C80.9816 49.8286 81.9975 49.408 82.8695 48.5414C82.9626 48.4395 83.2039 48.1549 83.5679 47.7174ZM76.6597 42.314C75.792 43.1806 75.3729 44.2001 75.3729 45.432C75.3729 45.929 75.3983 46.2943 75.4364 46.5619L80.8842 41.0821C80.6133 41.0481 80.2493 41.0226 79.754 41.0226C78.5349 41.0226 77.5232 41.4474 76.6597 42.314Z" fill="#E0E8F2"/>
</svg>
